<svg width="88" height="88" viewBox="0 0 88 88" fill="none" xmlns="http://www.w3.org/2000/svg">
<rect width="88" height="88" rx="44" fill="#00C9B7"/>
<g clip-path="url(#clip0_0_19)">
<path d="M44 36.9453C47.8509 36.9453 50.9727 33.8235 50.9727 29.9727C50.9727 26.1218 47.8509 23 44 23C40.1491 23 37.0273 26.1218 37.0273 29.9727C37.0273 33.8235 40.1491 36.9453 44 36.9453Z" fill="white"/>
<path d="M49.1236 37.8896C47.6473 38.8483 45.8876 39.406 44 39.406C42.1124 39.406 40.3527 38.8483 38.8764 37.8896C37.2351 38.517 35.723 39.4405 34.4156 40.6144L44 44.2086L53.5844 40.6144C52.277 39.4405 50.7649 38.5169 49.1236 37.8896ZM58.7656 48.4294H57.9453C57.2658 48.4294 56.7148 48.9804 56.7148 49.6599V52.9412C56.7148 53.6207 57.2658 54.1716 57.9453 54.1716H58.7656C60.3513 54.1716 61.6367 52.8862 61.6367 51.3005C61.6367 49.7149 60.3513 48.4294 58.7656 48.4294ZM30.1741 42.2177C30.0107 42.3309 29.8772 42.4821 29.7849 42.6582C29.6927 42.8344 29.6445 43.0302 29.6445 43.2291V45.9685H30.0547C32.0901 45.9685 33.7461 47.6245 33.7461 49.6599V52.9412C33.7461 54.9766 32.0901 56.6326 30.0547 56.6326H29.6445V59.2252C29.6445 59.4756 29.721 59.7201 29.8636 59.926C30.0063 60.1319 30.2084 60.2893 30.4429 60.3773L42.7695 64.9997V46.3754L31.3071 42.0769C31.1209 42.007 30.9206 41.9834 30.7233 42.0079C30.5259 42.0324 30.3375 42.1044 30.1741 42.2177Z" fill="white"/>
<path d="M54.2539 52.9416V49.6603C54.2539 47.6249 55.9099 45.9689 57.9453 45.9689H58.3555V43.2295C58.3555 43.0307 58.3073 42.8348 58.2151 42.6587C58.1228 42.4825 57.9893 42.3314 57.8259 42.2181C57.6625 42.1049 57.474 42.0329 57.2767 42.0084C57.0794 41.9839 56.8791 42.0076 56.6929 42.0774L45.2305 46.3758V65.0002L57.5571 60.3777C57.7916 60.2898 57.9937 60.1323 58.1364 59.9265C58.279 59.7206 58.3555 59.4761 58.3555 59.2256V56.633H57.9453C55.9099 56.633 54.2539 54.977 54.2539 52.9416ZM31.2852 52.9416V49.6603C31.2852 48.9808 30.7342 48.4299 30.0547 48.4299H29.2344C27.6487 48.4299 26.3633 49.7153 26.3633 51.301C26.3633 52.8866 27.6487 54.1721 29.2344 54.1721H30.0547C30.7342 54.1721 31.2852 53.6211 31.2852 52.9416Z" fill="white"/>
</g>
<defs>
<clipPath id="clip0_0_19">
<rect width="42" height="42" fill="white" transform="translate(23 23)"/>
</clipPath>
</defs>
</svg>
