<svg width="88" height="88" viewBox="0 0 88 88" fill="none" xmlns="http://www.w3.org/2000/svg">
<rect width="88" height="88" rx="44" fill="#3A0CA3"/>
<path fill-rule="evenodd" clip-rule="evenodd" d="M61.9702 46.0427V48.4748L58.992 49.6211C58.6141 51.2076 57.9856 52.7237 57.1301 54.1122L58.4263 57.0306L54.9868 60.4702L52.0693 59.1744C50.6805 60.0302 49.164 60.6588 47.577 61.0367L46.431 64.0141H41.5667L40.4204 61.0359C38.8339 60.658 37.3178 60.0295 35.9293 59.1741L33.0109 60.4702L29.5713 57.0307L30.867 54.1132C30.0113 52.7244 29.3827 51.2079 29.0048 49.6209L26.0273 48.4748V46.0427H34.4573C34.4573 51.3121 38.7292 55.5841 43.9988 55.5841C49.2683 55.5841 53.5402 51.3122 53.5402 46.0427H61.9702ZM31.95 31.4506C33.6134 31.4506 34.9619 32.7991 34.9619 34.4625C34.9619 36.1259 33.6134 37.4743 31.95 37.4743C30.2866 37.4743 28.9381 36.1259 28.9381 34.4625C28.9381 32.799 30.2866 31.4506 31.95 31.4506ZM26.8093 43.6106H37.0907C37.1906 43.611 37.2893 43.5885 37.3792 43.5448C37.4691 43.5012 37.5478 43.4375 37.6092 43.3587C37.6707 43.2798 37.7133 43.188 37.7337 43.0902C37.7541 42.9923 37.7519 42.8911 37.7271 42.7943C37.077 40.2088 34.7371 38.2946 31.95 38.2946C29.1628 38.2946 26.823 40.2088 26.1729 42.7943C26.1481 42.8911 26.1458 42.9923 26.1662 43.0902C26.1867 43.188 26.2292 43.2798 26.2907 43.3587C26.3521 43.4375 26.4308 43.5012 26.5207 43.5448C26.6106 43.5885 26.7093 43.611 26.8093 43.6106ZM41.66 32.5488C41.5219 32.6511 41.349 32.6947 41.1788 32.6703C41.0087 32.6459 40.855 32.5555 40.7511 32.4185C40.6473 32.2816 40.6015 32.1092 40.6239 31.9388C40.6462 31.7684 40.7348 31.6136 40.8705 31.5081L47.2712 26.648C47.3632 26.5782 47.4721 26.534 47.5868 26.52C47.7015 26.5059 47.8178 26.5226 47.9239 26.5682L47.9249 26.566L53.9386 29.1519L58.1738 25.2989L57.4812 25.3015C57.3097 25.2987 57.146 25.2287 57.0257 25.1064C56.9053 24.9841 56.8378 24.8194 56.8378 24.6478C56.8378 24.4762 56.9053 24.3114 57.0257 24.1891C57.146 24.0668 57.3097 23.9968 57.4812 23.994L59.8727 23.9854C60.2858 23.9854 60.5924 24.3627 60.5144 24.7643L60.0523 27.1107C60.0358 27.1952 60.0028 27.2756 59.9552 27.3473C59.9076 27.4191 59.8464 27.4807 59.775 27.5288C59.7036 27.5769 59.6234 27.6104 59.539 27.6275C59.4546 27.6446 59.3677 27.6449 59.2832 27.6284C59.1987 27.6119 59.1183 27.579 59.0466 27.5314C58.9748 27.4838 58.9131 27.4226 58.8651 27.3512C58.817 27.2797 58.7834 27.1996 58.7663 27.1152C58.7492 27.0308 58.7489 26.9439 58.7654 26.8594L58.8444 26.4601L54.5309 30.3843C54.4381 30.4771 54.3197 30.5399 54.1908 30.5647C54.0619 30.5894 53.9286 30.575 53.808 30.5232L47.7555 27.9206L41.66 32.5488ZM46.6556 32.7752H48.6764C48.9475 32.7752 49.1686 32.9962 49.1686 33.2674V43.1184C49.1686 43.3895 48.9475 43.6106 48.6764 43.6106H46.6556C46.3845 43.6106 46.1634 43.3895 46.1634 43.1184V33.2674C46.1635 32.9963 46.3845 32.7752 46.6556 32.7752ZM40.2549 37.8454H42.2757C42.5468 37.8454 42.7679 38.0664 42.7679 38.3375V43.1184C42.7679 43.3895 42.5468 43.6106 42.2757 43.6106H40.2549C39.9838 43.6106 39.7627 43.3895 39.7627 43.1184V38.3375C39.7627 38.0664 39.9838 37.8454 40.2549 37.8454ZM59.4571 28.8332C59.186 28.8332 58.9649 29.0542 58.9649 29.3253V43.1184C58.9649 43.3895 59.186 43.6106 59.4571 43.6106H61.478C61.7491 43.6106 61.9702 43.3895 61.9702 43.1184V29.3253C61.9702 29.0542 61.7491 28.8332 61.478 28.8332H59.4571ZM53.0564 34.8247H55.0772C55.3483 34.8247 55.5694 35.0458 55.5694 35.3169V43.1185C55.5694 43.3896 55.3483 43.6107 55.0772 43.6107H53.0564C52.7853 43.6107 52.5642 43.3896 52.5642 43.1185V35.3169C52.5642 35.0458 52.7853 34.8247 53.0564 34.8247ZM35.7698 46.0427C35.7698 50.5875 39.4539 54.2716 43.9988 54.2716C48.5436 54.2716 52.2277 50.5875 52.2277 46.0427H35.7698Z" fill="white"/>
</svg>
