<svg width="88" height="88" viewBox="0 0 88 88" fill="none" xmlns="http://www.w3.org/2000/svg">
<rect width="88" height="88" rx="44" fill="#F6D162"/>
<path fill-rule="evenodd" clip-rule="evenodd" d="M50.1372 55.7253V58.4964C50.1355 59.2397 49.8394 59.952 49.3138 60.4776C48.7883 61.0032 48.0759 61.2992 47.3326 61.301H45.9244V62.3166C45.9237 62.5494 45.8309 62.7725 45.6663 62.9372C45.5016 63.1018 45.2785 63.1946 45.0457 63.1953H41.8797C41.6469 63.1946 41.4238 63.1018 41.2591 62.9372C41.0945 62.7725 41.0017 62.5494 41.0011 62.3166V61.301H39.5927C38.8494 61.2993 38.1371 61.0032 37.6115 60.4776C37.0859 59.952 36.7899 59.2397 36.7882 58.4964V55.7253C36.7882 50.7766 31.4321 50.1278 31.4321 41.5798C31.4322 38.3891 32.6997 35.3292 34.9559 33.073C37.212 30.8168 40.272 29.5493 43.4627 29.5493C43.6368 29.5493 43.8037 29.6184 43.9268 29.7415C44.0498 29.8646 44.119 30.0315 44.119 30.2055C44.119 30.3796 44.0498 30.5465 43.9268 30.6696C43.8037 30.7927 43.6368 30.8618 43.4627 30.8618C42.0552 30.8618 40.6615 31.1391 39.3611 31.6778C38.0608 32.2164 36.8793 33.0059 35.884 34.0012C34.8888 34.9965 34.0993 36.1781 33.5608 37.4784C33.0222 38.7788 32.745 40.1726 32.745 41.5801C32.745 49.3835 37.6745 50.037 38.0753 55.0693H49.4809C49.655 55.0693 49.8219 55.1384 49.945 55.2615C50.0681 55.3846 50.1372 55.5515 50.1372 55.7255V55.7253ZM50.9195 42.7983C50.4887 43.0694 49.99 43.2133 49.4809 43.2133C48.9719 43.2133 48.4732 43.0694 48.0424 42.7983C47.3222 43.0488 46.6796 43.4822 46.1776 44.056C45.6756 44.6299 45.3314 45.3244 45.1788 46.0714C45.7304 46.6597 46.3967 47.1287 47.1367 47.4493C47.8766 47.7699 48.6745 47.9353 49.4809 47.9353C50.2874 47.9353 51.0853 47.7699 51.8252 47.4493C52.5652 47.1287 53.2315 46.6597 53.7831 46.0714C53.6305 45.3244 53.2863 44.6299 52.7843 44.056C52.2823 43.4822 51.6397 43.0488 50.9195 42.7983ZM49.4809 38.4688C49.0767 38.4688 48.6815 38.5887 48.3453 38.8133C48.0092 39.0379 47.7472 39.3571 47.5925 39.7306C47.4378 40.1041 47.3973 40.5151 47.4762 40.9116C47.555 41.3081 47.7497 41.6723 48.0356 41.9582C48.3215 42.2441 48.6857 42.4388 49.0822 42.5176C49.4787 42.5965 49.8897 42.556 50.2632 42.4013C50.6367 42.2466 50.9559 41.9846 51.1805 41.6485C51.4051 41.3123 51.525 40.9171 51.525 40.5129C51.525 39.9707 51.3097 39.4508 50.9263 39.0675C50.543 38.6842 50.0231 38.4688 49.4809 38.4688ZM61.1335 44.0928C61.3713 42.7323 61.3713 41.3409 61.1335 39.9805H58.9879C58.7404 38.8388 58.2892 37.7511 57.6559 36.7695L59.1734 35.2519C58.3803 34.1212 57.3963 33.1373 56.2656 32.3441L54.7493 33.8605C53.7667 33.2289 52.6787 32.7788 51.537 32.5316V30.384C50.1766 30.146 48.7852 30.146 47.4248 30.384V32.5296C46.2831 32.7773 45.1955 33.2285 44.2138 33.8617L42.6962 32.3441C41.5656 33.1373 40.5816 34.1213 39.7885 35.2519L41.3048 36.7683C40.6732 37.7509 40.2231 38.839 39.9759 39.9806H37.8283C37.5903 41.3411 37.5903 42.7325 37.8283 44.0929H39.9759C40.2231 45.2346 40.6732 46.3226 41.3048 47.3052L39.7885 48.8216C40.5816 49.9522 41.5656 50.9362 42.6962 51.7294L44.2138 50.2118C45.1955 50.845 46.2831 51.2963 47.4248 51.5439V53.6894C48.7852 53.9275 50.1766 53.9275 51.537 53.6894V51.5419C52.6787 51.2947 53.7667 50.8446 54.7493 50.213L56.2656 51.7293C57.3963 50.9361 58.3803 49.9522 59.1734 48.8215L57.6559 47.3039C58.2892 46.3223 58.7404 45.2346 58.9879 44.093L61.1335 44.0928ZM54.1155 37.4021C53.1988 36.4854 52.031 35.8612 50.7596 35.6083C49.4881 35.3554 48.1703 35.4852 46.9727 35.9812C45.775 36.4773 44.7514 37.3174 44.0312 38.3952C43.311 39.4731 42.9266 40.7403 42.9266 42.0366C42.9266 43.3329 43.311 44.6002 44.0312 45.678C44.7514 46.7559 45.775 47.5959 46.9727 48.092C48.1703 48.5881 49.4881 48.7179 50.7596 48.465C52.031 48.2121 53.1988 47.5878 54.1155 46.6712C55.3446 45.442 56.0352 43.7749 56.0352 42.0366C56.0352 40.2983 55.3446 38.6312 54.1155 37.4021ZM32.883 53.7958L34.3005 52.3782C34.42 52.2544 34.4862 52.0886 34.4847 51.9166C34.4832 51.7445 34.4142 51.5799 34.2925 51.4582C34.1708 51.3366 34.0062 51.2675 33.8342 51.266C33.6621 51.2646 33.4963 51.3307 33.3726 51.4502L31.955 52.8676C31.8929 52.9283 31.8435 53.0007 31.8096 53.0806C31.7757 53.1605 31.758 53.2463 31.7575 53.3331C31.7571 53.4199 31.7738 53.5059 31.8068 53.5862C31.8398 53.6665 31.8884 53.7394 31.9498 53.8008C32.0111 53.8622 32.0841 53.9108 32.1644 53.9438C32.2446 53.9768 32.3307 53.9935 32.4175 53.993C32.5043 53.9925 32.5901 53.9748 32.67 53.9409C32.7499 53.9071 32.8223 53.8577 32.883 53.7956V53.7958ZM42.3057 25.4609C42.3057 25.2869 42.3748 25.12 42.4979 24.9969C42.621 24.8738 42.7879 24.8047 42.9619 24.8047C43.136 24.8047 43.3029 24.8738 43.426 24.9969C43.549 25.12 43.6182 25.2869 43.6182 25.4609V27.4657C43.6182 27.6397 43.549 27.8067 43.426 27.9297C43.3029 28.0528 43.136 28.1219 42.9619 28.1219C42.7879 28.1219 42.621 28.0528 42.4979 27.9297C42.3748 27.8067 42.3057 27.6397 42.3057 27.4657V25.4609ZM31.2468 31.0001L32.6644 32.4177C32.725 32.4801 32.7974 32.5298 32.8774 32.564C32.9574 32.5982 33.0434 32.6161 33.1303 32.6167C33.2173 32.6174 33.3036 32.6007 33.3841 32.5677C33.4646 32.5347 33.5377 32.4861 33.5992 32.4246C33.6607 32.363 33.7094 32.2899 33.7424 32.2094C33.7754 32.129 33.792 32.0427 33.7914 31.9557C33.7908 31.8687 33.7729 31.7828 33.7387 31.7028C33.7045 31.6228 33.6548 31.5503 33.5924 31.4897L32.1748 30.0722C32.1142 30.0098 32.0418 29.96 31.9618 29.9259C31.8818 29.8917 31.7958 29.8738 31.7088 29.8731C31.6219 29.8725 31.5356 29.8891 31.4551 29.9221C31.3746 29.9551 31.3015 30.0038 31.24 30.0653C31.1785 30.1268 31.1298 30.1999 31.0968 30.2804C31.0638 30.3609 31.0472 30.4471 31.0478 30.5341C31.0484 30.6211 31.0663 30.7071 31.1005 30.7871C31.1347 30.8671 31.1844 30.9395 31.2468 31.0001ZM27.3438 42.7367C27.1697 42.7367 27.0028 42.6676 26.8797 42.5445C26.7566 42.4214 26.6875 42.2545 26.6875 42.0805C26.6875 41.9064 26.7566 41.7395 26.8797 41.6164C27.0028 41.4934 27.1697 41.4242 27.3438 41.4242H29.3489C29.523 41.4242 29.6899 41.4934 29.813 41.6164C29.936 41.7395 30.0052 41.9064 30.0052 42.0805C30.0052 42.2545 29.936 42.4214 29.813 42.5445C29.6899 42.6676 29.523 42.7367 29.3489 42.7367H27.3438Z" fill="white"/>
</svg>
