<svg width="36" height="36" viewBox="0 0 36 36" fill="none" xmlns="http://www.w3.org/2000/svg">
<rect x="0.5" y="0.5" width="35" height="35" rx="17.5" stroke="#141420"/>
<path d="M12.75 23.8325H23.25" stroke="#141420" stroke-linecap="round" stroke-linejoin="round"/>
<path d="M14.2667 15.8882H13.3333C13.0125 15.8882 12.75 16.1507 12.75 16.4715V21.4998C12.75 21.8207 13.0125 22.0832 13.3333 22.0832H14.2667C14.5875 22.0832 14.85 21.8207 14.85 21.4998V16.4715C14.85 16.1507 14.5875 15.8882 14.2667 15.8882Z" fill="#141420"/>
<path d="M18.4659 14.0269H17.5326C17.2117 14.0269 16.9492 14.2894 16.9492 14.6102V21.4994C16.9492 21.8202 17.2117 22.0827 17.5326 22.0827H18.4659C18.7867 22.0827 19.0492 21.8202 19.0492 21.4994V14.6102C19.0492 14.2894 18.7867 14.0269 18.4659 14.0269Z" fill="#141420"/>
<path d="M22.6651 12.165H21.7318C21.4109 12.165 21.1484 12.4275 21.1484 12.7484V21.4984C21.1484 21.8192 21.4109 22.0817 21.7318 22.0817H22.6651C22.9859 22.0817 23.2484 21.8192 23.2484 21.4984V12.7484C23.2484 12.4275 22.9859 12.165 22.6651 12.165Z" fill="#141420"/>
</svg>
