<svg width="36" height="36" viewBox="0 0 36 36" fill="none" xmlns="http://www.w3.org/2000/svg">
<rect x="0.5" y="0.5" width="35" height="35" rx="17.5" stroke="#141420"/>
<path d="M16.8639 12.4759L13.3522 14.7684C12.2264 15.5034 12.2264 17.1484 13.3522 17.8834L16.8639 20.1759C17.4939 20.5901 18.5322 20.5901 19.1622 20.1759L22.6564 17.8834C23.7764 17.1484 23.7764 15.5092 22.6564 14.7742L19.1622 12.4817C18.5322 12.0617 17.4939 12.0617 16.8639 12.4759Z" fill="#141420"/>
<path d="M14.2832 18.6309L14.2773 21.3667C14.2773 22.1075 14.849 22.9009 15.549 23.1342L17.4098 23.7525C17.7307 23.8575 18.2615 23.8575 18.5882 23.7525L20.449 23.1342C21.149 22.9009 21.7207 22.1075 21.7207 21.3667V18.66" fill="#141420"/>
<path d="M23.4844 19.75V16.25" stroke="#141420" stroke-linecap="round" stroke-linejoin="round"/>
</svg>
