<svg xmlns="http://www.w3.org/2000/svg" width="18" height="18" viewBox="0 0 18 18" fill="none">
  <g clip-path="url(#clip0_7510_831)">
    <path d="M17.8242 9.20768C17.8242 8.59588 17.7746 7.98078 17.6688 7.37891H9.17969V10.8446H14.041C13.8393 11.9624 13.1911 12.9512 12.242 13.5795V15.8283H15.1422C16.8453 14.2608 17.8242 11.9459 17.8242 9.20768Z" fill="#4285F4"/>
    <path d="M9.17934 18C11.6067 18 13.6537 17.203 15.1452 15.8273L12.2449 13.5786C11.438 14.1275 10.3963 14.4384 9.18265 14.4384C6.83468 14.4384 4.84387 12.8543 4.12955 10.7246H1.13672V13.0428C2.66455 16.0819 5.77644 18 9.17934 18Z" fill="#34A853"/>
    <path d="M4.12659 10.725C3.74959 9.60727 3.74959 8.39691 4.12659 7.27914V4.96094H1.13706C-0.139438 7.50402 -0.139438 10.5002 1.13706 13.0432L4.12659 10.725Z" fill="#FBBC04"/>
    <path d="M9.17934 3.56224C10.4625 3.5424 11.7026 4.02523 12.6318 4.9115L15.2014 2.34196C13.5743 0.814129 11.4149 -0.0258495 9.17934 0.000606499C5.77644 0.000606499 2.66455 1.91867 1.13672 4.96111L4.12625 7.27931C4.83725 5.1463 6.83137 3.56224 9.17934 3.56224Z" fill="#EA4335"/>
  </g>
  <defs>
    <clipPath id="clip0_7510_831">
      <rect width="18" height="18" fill="white"/>
    </clipPath>
  </defs>
</svg>