<svg width="83" height="164" viewBox="0 0 83 164" fill="none" xmlns="http://www.w3.org/2000/svg">
  <path d="M29.9297 137.651C30.5311 138.206 31.1438 138.742 31.7666 139.279L147.957 40.188C147.515 39.5158 147.053 38.8422 146.58 38.1679L29.9297 137.651Z" fill="#FF5E54"/>
  <path d="M55.4317 153.21C56.3102 153.538 57.2008 153.838 58.0914 154.137L159.172 67.9325C159.007 67.0233 158.823 66.1128 158.617 65.2107L55.4317 153.21Z" fill="#FF5E54"/>
  <path d="M37.4097 143.71C38.0966 144.192 38.7842 144.665 39.4824 145.128L152.735 48.5432C152.368 47.7974 151.99 47.0607 151.602 46.3233L37.4097 143.71Z" fill="#FF5E54"/>
  <path d="M45.8755 148.929C46.6478 149.339 47.4309 149.739 48.2146 150.129L156.53 57.7551C156.258 56.9371 155.967 56.1177 155.665 55.3074L45.8855 148.93L45.8755 148.929Z" fill="#FF5E54"/>
  <path d="M66.3181 156.361C67.3348 156.581 68.3537 156.77 69.3733 156.951L160.398 79.3219C160.362 78.3034 160.315 77.2842 160.239 76.2629L66.3181 156.361Z" fill="#FF5E54"/>
  <path d="M24.1364 131.751C24.405 132.055 24.6744 132.35 24.9537 132.646L142.256 32.6076C141.997 32.3034 141.729 31.9887 141.471 31.6845C141.212 31.3803 140.933 31.0845 140.653 30.7888L23.3511 130.827C23.6098 131.132 23.8777 131.446 24.1364 131.751Z" fill="#FF5E54"/>
  <path d="M78.9713 158.009C80.1804 158.064 81.3909 158.1 82.6035 158.106L159.672 92.3797C159.838 91.1979 159.984 90.0146 160.09 88.8286L78.9713 158.009Z" fill="#FF5E54"/>
  <path d="M5.92436 71.0751C5.75847 72.2569 5.61249 73.4402 5.50645 74.6262L86.6253 5.44579C85.4162 5.39053 84.2057 5.35489 82.9931 5.3487L5.92436 71.0751Z" fill="#FF5E54"/>
  <path d="M5.21014 84.1233C5.24658 85.1417 5.29299 86.1609 5.36932 87.1822L99.2902 7.08385C98.2735 6.86454 97.2546 6.67467 96.235 6.49462L5.21014 84.1233Z" fill="#FF5E54"/>
  <path d="M9.99746 55.1648C9.43903 56.6446 8.92903 58.1475 8.46892 59.6539L71.1434 6.20335C69.5625 6.43762 67.9779 6.72095 66.4098 7.05476L9.99746 55.1648Z" fill="#FF5E54"/>
  <path d="M48.2277 13.3144C42.4897 16.1272 37.0183 19.6886 31.9531 24.0083C26.8878 28.3281 22.528 33.1512 18.8835 38.34L48.2277 13.3144Z" fill="#FF5E54"/>
  <path d="M12.863 114.902C13.23 115.648 13.6076 116.385 13.9953 117.122L128.188 19.7352C127.501 19.253 126.813 18.7807 126.115 18.3174L12.863 114.902Z" fill="#FF5E54"/>
  <path d="M17.64 123.256C18.0825 123.928 18.5449 124.602 19.0174 125.276L135.668 25.7933C135.066 25.2382 134.454 24.7021 133.831 24.1652L17.64 123.256Z" fill="#FF5E54"/>
  <path d="M6.43122 95.5126C6.59589 96.4217 6.7805 97.3322 6.98578 98.2343L110.172 10.2346C109.293 9.90659 108.402 9.60737 107.512 9.30814L6.43122 95.5126Z" fill="#FF5E54"/>
  <path d="M9.07061 105.699C9.34214 106.517 9.6336 107.337 9.94575 108.148L119.725 14.5249C118.953 14.1156 118.17 13.7154 117.386 13.325L9.07061 105.699Z" fill="#FF5E54"/>
</svg>