<svg width="36" height="36" viewBox="0 0 36 36" fill="none" xmlns="http://www.w3.org/2000/svg">
<rect x="0.5" y="0.5" width="35" height="35" rx="17.5" stroke="#141420"/>
<path d="M23.0286 15.9293C22.4161 13.2343 20.0653 12.021 18.0003 12.021C18.0003 12.021 18.0003 12.021 17.9945 12.021C15.9353 12.021 13.5786 13.2285 12.9661 15.9235C12.2836 18.9335 14.127 21.4827 15.7953 23.0868C16.4136 23.6818 17.207 23.9793 18.0003 23.9793C18.7936 23.9793 19.587 23.6818 20.1995 23.0868C21.8678 21.4827 23.7111 18.9393 23.0286 15.9293ZM18.0003 18.8518C16.9853 18.8518 16.1628 18.0293 16.1628 17.0143C16.1628 15.9993 16.9853 15.1768 18.0003 15.1768C19.0153 15.1768 19.8378 15.9993 19.8378 17.0143C19.8378 18.0293 19.0153 18.8518 18.0003 18.8518Z" fill="#141420"/>
</svg>
