<svg width="24" height="24" viewBox="0 0 24 24" fill="none" xmlns="http://www.w3.org/2000/svg">
<path d="M3.67289 2.83203C3.67225 2.83203 3.67152 2.83203 3.67087 2.83203C3.44388 2.83203 3.23039 2.92052 3.06917 3.08132C2.90618 3.24391 2.81641 3.4604 2.81641 3.69086V16.5689C2.81641 17.0411 3.2021 17.4263 3.67629 17.4275C5.67533 17.4322 9.02451 17.8489 11.335 20.2668V6.78954C11.335 6.62946 11.2941 6.47907 11.2169 6.35463C9.32059 3.30072 5.67646 2.83672 3.67289 2.83203Z" fill="#F6D162"/>
<path d="M21.1865 16.569V3.69086C21.1865 3.4604 21.0967 3.24391 20.9337 3.08132C20.7725 2.92052 20.5588 2.83203 20.3321 2.83203C20.3313 2.83203 20.3306 2.83203 20.33 2.83203C18.3265 2.8368 14.6824 3.3008 12.7859 6.35471C12.7088 6.47915 12.668 6.62954 12.668 6.78962V20.2668C14.9784 17.8489 18.3276 17.4322 20.3267 17.4275C20.8008 17.4263 21.1865 17.0411 21.1865 16.569Z" fill="#F6D162"/>
<path d="M23.1396 5.80176H22.5169V16.5687C22.5169 17.7745 21.5345 18.7577 20.3269 18.7607C18.6313 18.7647 15.8355 19.0963 13.8555 20.9703C17.28 20.1318 20.89 20.6769 22.9474 21.1457C23.2043 21.2042 23.4697 21.1438 23.6755 20.9797C23.8806 20.8161 23.9983 20.5715 23.9983 20.309V6.66043C23.9984 6.18697 23.6131 5.80176 23.1396 5.80176Z" fill="#F6D162"/>
<path d="M1.48138 16.5687V5.80176H0.85867C0.385294 5.80176 0 6.18697 0 6.66043V20.3087C0 20.5713 0.117657 20.8159 0.322749 20.9795C0.528406 21.1435 0.793619 21.2042 1.05091 21.1455C3.10829 20.6766 6.71841 20.1316 10.1427 20.9701C8.16278 19.0961 5.36697 18.7646 3.67137 18.7606C2.46385 18.7577 1.48138 17.7745 1.48138 16.5687Z" fill="#F6D162"/>
</svg>
