<svg width="36" height="36" viewBox="0 0 36 36" fill="none" xmlns="http://www.w3.org/2000/svg">
<rect x="0.5" y="0.5" width="35" height="35" rx="17.5" stroke="#141420"/>
<path d="M23.8171 21.6918C23.8171 21.9018 23.7705 22.1177 23.6713 22.3277C23.5721 22.5377 23.4438 22.736 23.2746 22.9227C22.9888 23.2377 22.6738 23.4652 22.318 23.611C21.968 23.7569 21.5888 23.8327 21.1805 23.8327C20.5855 23.8327 19.9496 23.6927 19.2788 23.4068C18.608 23.121 17.9371 22.736 17.2721 22.2519C16.6013 21.7619 15.9655 21.2193 15.3588 20.6185C14.758 20.0118 14.2155 19.376 13.7313 18.711C13.253 18.046 12.868 17.381 12.588 16.7218C12.308 16.0568 12.168 15.421 12.168 14.8143C12.168 14.4177 12.238 14.0385 12.378 13.6885C12.518 13.3327 12.7396 13.006 13.0488 12.7143C13.4221 12.3468 13.8305 12.166 14.2621 12.166C14.4255 12.166 14.5888 12.201 14.7346 12.271C14.8863 12.341 15.0205 12.446 15.1255 12.5977L16.4788 14.5052C16.5838 14.651 16.6596 14.7852 16.7121 14.9135C16.7646 15.036 16.7938 15.1585 16.7938 15.2693C16.7938 15.4093 16.753 15.5493 16.6713 15.6835C16.5955 15.8177 16.4846 15.9577 16.3446 16.0977L15.9013 16.5585C15.8371 16.6227 15.808 16.6985 15.808 16.7918C15.808 16.8385 15.8138 16.8793 15.8255 16.926C15.843 16.9727 15.8605 17.0077 15.8721 17.0427C15.9771 17.2352 16.158 17.486 16.4146 17.7893C16.6771 18.0927 16.9571 18.4018 17.2605 18.711C17.5755 19.0202 17.8788 19.306 18.188 19.5685C18.4913 19.8252 18.7421 20.0002 18.9405 20.1052C18.9696 20.1168 19.0046 20.1343 19.0455 20.1518C19.0921 20.1693 19.1388 20.1752 19.1913 20.1752C19.2905 20.1752 19.3663 20.1402 19.4305 20.076L19.8738 19.6385C20.0196 19.4927 20.1596 19.3818 20.2938 19.3118C20.428 19.2302 20.5621 19.1893 20.708 19.1893C20.8188 19.1893 20.9355 19.2127 21.0638 19.2652C21.1921 19.3177 21.3263 19.3935 21.4721 19.4927L23.403 20.8635C23.5546 20.9685 23.6596 21.091 23.7238 21.2368C23.7821 21.3827 23.8171 21.5285 23.8171 21.6918Z" fill="#141420"/>
<path d="M21.7917 16.2487C21.7917 15.8987 21.5175 15.362 21.1092 14.9245C20.7358 14.522 20.24 14.207 19.75 14.207" stroke="#141420" stroke-linecap="round" stroke-linejoin="round"/>
<path d="M23.8333 16.2493C23.8333 13.9918 22.0075 12.166 19.75 12.166" stroke="#141420" stroke-linecap="round" stroke-linejoin="round"/>
</svg>
