<svg width="319" height="55" viewBox="0 0 319 55" fill="none" xmlns="http://www.w3.org/2000/svg">
<path fill-rule="evenodd" clip-rule="evenodd" d="M173.258 18.0173C136.374 22.5852 99.6263 28.5448 63.1779 35.9571C43.2701 40.0052 19.888 42.045 1.07096 51.0374C-0.411307 51.7467 0.0619973 53.4183 0.112017 53.5826C0.213551 53.9265 0.608886 55.0621 1.84481 54.9974C1.9419 54.993 2.59129 54.8269 2.84348 54.7612C8.49881 53.284 14.1224 51.656 19.7869 50.2292C39.3532 45.2915 59.042 41.0854 78.7913 37.1503C105.007 31.9252 131.566 27.9024 158.004 24.2093C172.479 22.1807 187.436 21.5203 201.9 18.8569C207.238 18.2979 212.588 17.7687 217.94 17.2648C240.32 15.1694 262.766 14.0059 285.245 13.2238C292.471 12.9722 298.003 12.9224 305.074 12.5629C307.761 12.4278 312.015 12.0981 314.969 11.8651C315.398 11.8333 316.474 11.738 316.941 11.6975C317.005 11.7014 317.068 11.6953 317.131 11.6891C317.357 11.6618 317.469 11.6354 317.49 11.6283C319.062 11.1871 318.736 9.38309 318.662 9.10317C318.648 9.04304 318.262 7.52703 316.887 7.6053C316.681 7.61531 315.197 7.75049 314.625 7.79629C311.693 8.02723 307.472 8.35359 304.806 8.49174C297.752 8.84959 292.233 8.89812 285.02 9.14846C262.49 9.93551 239.989 11.0993 217.554 13.2001C214.933 13.4467 212.316 13.698 209.704 13.959C209.481 13.6732 209.156 13.4229 208.667 13.3221C208.221 13.2273 205.1 13.3999 203.887 13.3957C195.127 13.3874 195.387 13.3978 185.768 13.6275C171.2 13.9729 168.975 13.9446 153.893 14.9661C135.432 16.216 117.006 17.8676 98.5942 19.6563C124.883 15.5215 151.52 13.1217 177.876 10.0674C189.795 8.68928 201.693 7.144 213.643 6.0859C217.746 5.72492 221.858 5.50661 225.963 5.16596C226.813 5.09807 229.01 5.06227 229.316 4.94506C230.33 4.56365 230.461 3.60213 230.479 3.13881C230.487 2.87139 230.485 1.29217 228.881 0.895433C221.726 -0.864951 208.973 0.482033 202.207 0.657868C164.315 1.6527 126.686 6.09875 89.2302 11.7124C73.7655 14.0277 58.3846 16.6784 43.0844 20.0237C37.7335 21.189 32.361 22.2642 27.0524 23.6458C26.1924 23.8686 24.2422 24.2596 23.3093 24.5612C22.829 24.7211 22.4963 24.9178 22.343 25.0405C21.6299 25.6386 21.5754 26.4234 21.622 26.9419C21.6546 27.3182 21.8722 28.7174 23.453 28.9266C39.5365 31.1096 56.4946 27.9814 72.2923 26.3822C99.5685 23.6275 126.85 20.8875 154.207 19.0378C163.46 18.4131 167.856 18.1825 173.258 18.0173ZM179.985 5.71218C149.772 7.529 119.714 11.269 89.7665 15.7572C74.3648 18.0663 59.0463 20.7058 43.8081 24.0348C41.3798 24.565 38.9537 25.0745 36.5295 25.6043C48.4007 25.4719 60.4545 23.4806 71.8857 22.3195L79.7326 21.5301C79.6507 21.3432 79.5883 21.1391 79.5548 20.927C79.3739 19.8166 79.9707 18.7683 80.8862 18.5915C112.732 12.4917 145.286 9.73257 177.432 6.00841C178.283 5.90965 179.134 5.81095 179.985 5.71218Z" fill="#F2C855"/>
</svg>
