<svg xmlns="http://www.w3.org/2000/svg" width="16" height="16" viewBox="0 0 36 36" fill="none">
  <path d="M14.0382 26C21.2838 26 25.2462 19.845 25.2462 14.5075C25.2462 14.3327 25.2427 14.1587 25.235 13.9854C26.006 13.4134 26.6714 12.7051 27.2 11.8938C26.4942 12.2156 25.7346 12.4322 24.9378 12.5298C25.7511 12.0298 26.3755 11.2387 26.6701 10.2957C25.8968 10.7661 25.0509 11.0977 24.1687 11.2762C23.4499 10.491 22.4265 10 21.2933 10C19.1179 10 17.3539 11.8089 17.3539 14.0386C17.3539 14.3556 17.3885 14.6638 17.4561 14.9596C14.1821 14.7907 11.279 13.1834 9.33612 10.7394C8.98618 11.3559 8.80212 12.0564 8.80273 12.7696C8.80273 14.171 9.49815 15.408 10.5557 16.1318C9.93015 16.1122 9.31832 15.939 8.77167 15.6266C8.77108 15.6436 8.77108 15.6601 8.77108 15.6782C8.77108 17.6343 10.1289 19.2676 11.9314 19.6376C11.5928 19.7322 11.2435 19.78 10.8926 19.7798C10.6393 19.7798 10.3923 19.7542 10.1523 19.707C10.6538 21.3118 12.108 22.4797 13.8322 22.5124C12.4839 23.5959 10.7855 24.2413 8.93963 24.2413C8.62562 24.2416 8.31187 24.2229 8 24.1854C9.74338 25.3312 11.8135 25.9997 14.0384 25.9997" fill="#3A0CA3"/>
</svg>
